<svg xmlns="http://www.w3.org/2000/svg" width="1200" height="780" viewBox="0 0 1200 780" role="img" aria-label="Agent Newsletter project image">
  <defs>
    <linearGradient id="newsletter-bg" x1="0" y1="0" x2="1" y2="1">
      <stop offset="0%" stop-color="#f4efe2"/>
      <stop offset="100%" stop-color="#ddd2b8"/>
    </linearGradient>
    <linearGradient id="agent-orb" x1="0" y1="0" x2="1" y2="1">
      <stop offset="0%" stop-color="#1d4ed8"/>
      <stop offset="100%" stop-color="#0f766e"/>
    </linearGradient>
  </defs>
  <rect width="1200" height="780" fill="url(#newsletter-bg)"/>
  <circle cx="1050" cy="155" r="130" fill="#1e293b" opacity="0.08"/>
  <circle cx="960" cy="605" r="170" fill="#0f766e" opacity="0.08"/>
  <rect x="118" y="96" width="690" height="588" rx="22" fill="#fbf8f0" stroke="#111827" stroke-width="6"/>
  <rect x="118" y="96" width="690" height="78" rx="22" fill="#111827"/>
  <circle cx="174" cy="135" r="12" fill="#f8fafc" opacity="0.75"/>
  <circle cx="214" cy="135" r="12" fill="#f8fafc" opacity="0.48"/>
  <circle cx="254" cy="135" r="12" fill="#f8fafc" opacity="0.3"/>
  <rect x="170" y="220" width="305" height="190" rx="18" fill="#e5dcc8"/>
  <rect x="510" y="220" width="240" height="28" rx="14" fill="#1f2937" opacity="0.9"/>
  <rect x="510" y="276" width="226" height="16" rx="8" fill="#94a3b8"/>
  <rect x="510" y="309" width="208" height="16" rx="8" fill="#94a3b8"/>
  <rect x="510" y="342" width="182" height="16" rx="8" fill="#94a3b8"/>
  <rect x="170" y="454" width="580" height="20" rx="10" fill="#cbd5e1"/>
  <rect x="170" y="492" width="552" height="20" rx="10" fill="#cbd5e1"/>
  <rect x="170" y="530" width="575" height="20" rx="10" fill="#cbd5e1"/>
  <rect x="170" y="568" width="460" height="20" rx="10" fill="#cbd5e1"/>
  <circle cx="905" cy="218" r="84" fill="url(#agent-orb)"/>
  <polygon points="905,170 943,218 905,266 867,218" fill="#e0f2fe" opacity="0.92"/>
  <circle cx="905" cy="218" r="18" fill="#1d4ed8"/>
  <circle cx="905" cy="218" r="8" fill="#f8fafc"/>
  <circle cx="905" cy="144" r="12" fill="#dbeafe"/>
  <circle cx="969" cy="218" r="12" fill="#dbeafe"/>
  <circle cx="905" cy="292" r="12" fill="#dbeafe"/>
  <circle cx="841" cy="218" r="12" fill="#dbeafe"/>
  <line x1="905" y1="170" x2="905" y2="144" stroke="#e0f2fe" stroke-width="6" opacity="0.9"/>
  <line x1="953" y1="218" x2="969" y2="218" stroke="#e0f2fe" stroke-width="6" opacity="0.9"/>
  <line x1="905" y1="266" x2="905" y2="292" stroke="#e0f2fe" stroke-width="6" opacity="0.9"/>
  <line x1="857" y1="218" x2="841" y2="218" stroke="#e0f2fe" stroke-width="6" opacity="0.9"/>
  <circle cx="905" cy="218" r="118" fill="none" stroke="#1d4ed8" stroke-width="4" stroke-dasharray="12 12" opacity="0.32"/>
  <circle cx="905" cy="218" r="156" fill="none" stroke="#0f766e" stroke-width="4" stroke-dasharray="10 14" opacity="0.22"/>
  <circle cx="1034" cy="168" r="14" fill="#1d4ed8"/>
  <circle cx="1048" cy="322" r="14" fill="#0f766e"/>
  <circle cx="868" cy="356" r="14" fill="#2563eb"/>
  <line x1="905" y1="218" x2="1034" y2="168" stroke="#1d4ed8" stroke-width="5" opacity="0.6"/>
  <line x1="905" y1="218" x2="1048" y2="322" stroke="#0f766e" stroke-width="5" opacity="0.6"/>
  <line x1="905" y1="218" x2="868" y2="356" stroke="#2563eb" stroke-width="5" opacity="0.6"/>
  <rect x="850" y="460" width="232" height="148" rx="28" fill="#111827"/>
  <path d="M885 558 C925 518, 965 598, 1008 540" fill="none" stroke="#5eead4" stroke-width="8" stroke-linecap="round"/>
  <rect x="884" y="500" width="84" height="12" rx="6" fill="#334155"/>
  <rect x="884" y="612" width="146" height="12" rx="6" fill="#334155"/>
</svg>
