<svg xmlns="http://www.w3.org/2000/svg" width="1200" height="780" viewBox="0 0 1200 780" role="img" aria-label="Caption With Intent project image">
  <defs>
    <linearGradient id="cwi-bg" x1="0" y1="0" x2="1" y2="1">
      <stop offset="0%" stop-color="#111827"/>
      <stop offset="55%" stop-color="#0f766e"/>
      <stop offset="100%" stop-color="#f97316"/>
    </linearGradient>
    <linearGradient id="cwi-screen" x1="0" y1="0" x2="0" y2="1">
      <stop offset="0%" stop-color="#f8fafc"/>
      <stop offset="100%" stop-color="#e5e7eb"/>
    </linearGradient>
  </defs>
  <rect width="1200" height="780" fill="url(#cwi-bg)"/>
  <circle cx="170" cy="170" r="150" fill="#fef3c7" opacity="0.12"/>
  <circle cx="1050" cy="640" r="210" fill="#ccfbf1" opacity="0.12"/>
  <rect x="134" y="96" width="932" height="540" rx="30" fill="#111827" stroke="#f8fafc" stroke-width="7"/>
  <rect x="184" y="144" width="404" height="444" rx="22" fill="url(#cwi-screen)"/>
  <rect x="226" y="190" width="320" height="180" rx="18" fill="#0f172a"/>
  <path d="M356 245 L356 315 L420 280 Z" fill="#f97316"/>
  <rect x="226" y="416" width="276" height="22" rx="11" fill="#111827"/>
  <rect x="226" y="468" width="322" height="18" rx="9" fill="#6b7280"/>
  <rect x="226" y="506" width="240" height="18" rx="9" fill="#9ca3af"/>
  <rect x="648" y="144" width="330" height="66" rx="18" fill="#f8fafc"/>
  <rect x="688" y="168" width="190" height="18" rx="9" fill="#111827"/>
  <rect x="648" y="248" width="330" height="66" rx="18" fill="#ccfbf1"/>
  <rect x="688" y="272" width="238" height="18" rx="9" fill="#0f766e"/>
  <rect x="648" y="352" width="330" height="66" rx="18" fill="#ffedd5"/>
  <rect x="688" y="376" width="210" height="18" rx="9" fill="#ea580c"/>
  <rect x="648" y="484" width="330" height="74" rx="20" fill="#111827" stroke="#f8fafc" stroke-width="4"/>
  <text x="813" y="535" fill="#f8fafc" font-size="38" font-family="Helvetica, Arial, sans-serif" font-weight="700" text-anchor="middle">CWI</text>
  <rect x="182" y="676" width="836" height="28" rx="14" fill="#f8fafc" opacity="0.95"/>
  <rect x="236" y="676" width="258" height="28" rx="14" fill="#f97316"/>
  <rect x="550" y="668" width="16" height="44" rx="8" fill="#111827" stroke="#f8fafc" stroke-width="4"/>
  <rect x="622" y="662" width="42" height="56" rx="14" fill="#f8fafc"/>
  <rect x="680" y="662" width="96" height="56" rx="14" fill="#ccfbf1"/>
  <rect x="792" y="662" width="58" height="56" rx="14" fill="#ffedd5"/>
</svg>
