<svg xmlns="http://www.w3.org/2000/svg" width="1200" height="780" viewBox="0 0 1200 780" role="img" aria-label="Precortex project image">
  <defs>
    <linearGradient id="precortex-bg" x1="0" y1="0" x2="1" y2="1">
      <stop offset="0%" stop-color="#0b1220"/>
      <stop offset="55%" stop-color="#111827"/>
      <stop offset="100%" stop-color="#1f2937"/>
    </linearGradient>
    <linearGradient id="precortex-panel" x1="0" y1="0" x2="1" y2="1">
      <stop offset="0%" stop-color="#f8fafc"/>
      <stop offset="100%" stop-color="#e2e8f0"/>
    </linearGradient>
  </defs>
  <rect width="1200" height="780" fill="url(#precortex-bg)"/>
  <circle cx="170" cy="180" r="140" fill="#60a5fa" opacity="0.08"/>
  <circle cx="1030" cy="590" r="190" fill="#a78bfa" opacity="0.08"/>
  <rect x="120" y="140" width="600" height="500" rx="26" fill="url(#precortex-panel)" opacity="0.96"/>
  <rect x="780" y="140" width="300" height="500" rx="26" fill="#101826" opacity="0.94"/>
  <rect x="170" y="210" width="500" height="48" rx="14" fill="#dbeafe"/>
  <rect x="170" y="292" width="320" height="28" rx="10" fill="#cbd5e1"/>
  <rect x="170" y="344" width="420" height="28" rx="10" fill="#cbd5e1"/>
  <rect x="170" y="434" width="500" height="110" rx="22" fill="#0f172a"/>
  <rect x="820" y="214" width="220" height="70" rx="18" fill="#1d4ed8"/>
  <rect x="820" y="320" width="220" height="70" rx="18" fill="#0f766e"/>
  <rect x="820" y="426" width="220" height="70" rx="18" fill="#7c3aed"/>
  <circle cx="862" cy="249" r="10" fill="#dbeafe"/>
  <rect x="888" y="239" width="108" height="20" rx="10" fill="#dbeafe" opacity="0.92"/>
  <circle cx="862" cy="355" r="10" fill="#ccfbf1"/>
  <rect x="888" y="345" width="108" height="20" rx="10" fill="#ccfbf1" opacity="0.92"/>
  <circle cx="862" cy="461" r="10" fill="#ede9fe"/>
  <rect x="888" y="451" width="108" height="20" rx="10" fill="#ede9fe" opacity="0.92"/>
  <rect x="170" y="577" width="210" height="16" rx="8" fill="#cbd5e1" opacity="0.78"/>
  <rect x="170" y="607" width="150" height="16" rx="8" fill="#94a3b8" opacity="0.7"/>
</svg>
