<svg width="1200" height="780" viewBox="0 0 1200 780" xmlns="http://www.w3.org/2000/svg">
  <defs>
    <linearGradient id="bg" x1="0" y1="0" x2="1" y2="1">
      <stop offset="0%" stop-color="#1f2937"/>
      <stop offset="100%" stop-color="#111827"/>
    </linearGradient>
    <linearGradient id="panel" x1="0" y1="0" x2="0" y2="1">
      <stop offset="0%" stop-color="#f3f4f6"/>
      <stop offset="100%" stop-color="#e5e7eb"/>
    </linearGradient>
  </defs>
  <rect width="1200" height="780" fill="url(#bg)"/>
  <g transform="translate(170 120)">
    <rect x="0" y="0" width="860" height="540" rx="20" fill="#0b1220" opacity="0.5"/>
    <rect x="24" y="24" width="812" height="492" rx="16" fill="url(#panel)"/>
    <rect x="72" y="90" width="300" height="36" rx="8" fill="#9ca3af"/>
    <rect x="72" y="156" width="300" height="36" rx="8" fill="#cbd5e1"/>
    <rect x="72" y="222" width="300" height="36" rx="8" fill="#cbd5e1"/>
    <rect x="72" y="288" width="300" height="36" rx="8" fill="#cbd5e1"/>
    <rect x="72" y="354" width="300" height="36" rx="8" fill="#111827"/>
    <text x="118" y="378" fill="#f9fafb" font-size="30" font-family="Helvetica, Arial, sans-serif">CALCULATE</text>
    <g transform="translate(460 120)">
      <rect x="0" y="0" width="300" height="300" rx="16" fill="#111827"/>
      <path d="M40 120 L150 40 L260 120" stroke="#60a5fa" stroke-width="14" fill="none" stroke-linecap="round" stroke-linejoin="round"/>
      <rect x="86" y="122" width="128" height="130" rx="10" fill="#1d4ed8"/>
      <rect x="124" y="170" width="52" height="82" rx="6" fill="#dbeafe"/>
    </g>
  </g>
  <text x="600" y="730" text-anchor="middle" fill="#f9fafb" font-size="56" font-family="Helvetica, Arial, sans-serif" font-weight="700">
    RENT CALCULATOR
  </text>
</svg>
