<svg xmlns="http://www.w3.org/2000/svg" xml:space="preserve" width="233.64" height="233.644" viewBox="0 0 233.64 233.644"><defs><linearGradient id="a" x1="0" x2="1" y1="0" y2="0" gradientTransform="translate(366.206 433.53)scale(129.9883)" gradientUnits="userSpaceOnUse" spreadMethod="pad"><stop offset="0" style="stop-opacity:1;stop-color:#69c5f0"/><stop offset=".05" style="stop-opacity:1;stop-color:#69c5f0"/><stop offset=".382" style="stop-opacity:1;stop-color:#3f88d0"/><stop offset=".5" style="stop-opacity:1;stop-color:#3f88d0"/><stop offset=".732" style="stop-opacity:1;stop-color:#2c61b5"/><stop offset=".95" style="stop-opacity:1;stop-color:#2c61b5"/><stop offset="1" style="stop-opacity:1;stop-color:#2c61b5"/></linearGradient></defs><path d="M0 0c-39.482 0-71.604-32.121-71.604-71.604S-39.482-143.207 0-143.207s71.602 32.121 71.602 71.603C71.602-32.121 39.482 0 0 0m0-144.027c-39.936 0-72.422 32.49-72.422 72.423S-39.936.819 0 .819c39.934 0 72.424-32.489 72.424-72.423 0-39.933-32.49-72.423-72.424-72.423" style="fill:#1f4899;fill-opacity:1;fill-rule:nonzero;stroke:none" transform="matrix(1.3105 0 0 -1.3105 116.82 22.984)"/><path d="M-65.087 233.679h6.492V258.1h-6.492z" style="fill:#1f4899;fill-opacity:1;fill-rule:nonzero;stroke:none" transform="matrix(1.2286 0 0 -1.2286 193.28 403.596)"/><path d="M0 0v-4.771h7.656v-18.126h6.084v18.126h7.655V0z" style="fill:#1f4899;fill-opacity:1;fill-rule:nonzero;stroke:none" transform="matrix(1.3105 0 0 -1.3105 155.935 86.491)"/><path d="M0 0h-5.086c-1.352 0-2.445.559-2.445 2.146 0 1.592 1.093 2.147 2.445 2.147H5.85v4.77H-5.807c-4.351 0-7.881-2.512-7.881-6.917s3.53-6.916 7.881-6.916h5.233c1.349 0 2.445-.558 2.445-2.15 0-1.588-1.096-2.144-2.445-2.144h-12.27v-4.77H0c4.354 0 7.879 2.508 7.879 6.914C7.879-2.52 4.354 0 0 0" style="fill:#1f4899;fill-opacity:1;fill-rule:nonzero;stroke:none" transform="matrix(1.3105 0 0 -1.3105 144.827 98.37)"/><path d="m0 0-8.607-20.603-8.205 9.153L-6.553 0h-6.949l-9.723-10.87V0h-6.087v-22.897h6.087v10.869l9.723-10.869h10.121L3.588-5.63 8.65-18.323H.604l1.912-4.574h14.226L7.176 0Z" style="fill:#1f4899;fill-opacity:1;fill-rule:nonzero;stroke:none" transform="matrix(1.3105 0 0 -1.3105 89.036 86.491)"/><path d="M366.177 433.572a461.5 461.5 0 0 1 64.996-4.58c22.063 0 43.762 1.561 64.992 4.58a462 462 0 0 1-64.992 4.577 462 462 0 0 1-64.996-4.577" style="fill:url(#a);stroke:none" transform="matrix(1.3105 0 0 -1.3105 -447.754 697.296)"/><path d="m0 0-1.063 1.211 2.627 2.305-.023.025-4.381-.303-1.172 1.332 4.002.244 1.764 5.399 1.17-1.334L1.58 4.936l1.711.095 1.701 1.49 1.063-1.208Z" style="fill:#1f4899;fill-opacity:1;fill-rule:nonzero;stroke:none" transform="matrix(1.3105 0 0 -1.3105 36.738 191.354)"/><path d="M0 0c-1.416-.996-1.824-2.213-1.135-3.191.688-.979 1.971-1.01 3.387-.012 1.406.988 1.867 2.242 1.18 3.221C2.744.996 1.406.988 0 0m3.197-4.549c-2.144-1.508-4.238-1.181-5.463.561C-3.492-2.242-3.082-.16-.947 1.344 1.191 2.846 3.344 2.564 4.57.82c1.227-1.748.764-3.867-1.373-5.369" style="fill:#1f4899;fill-opacity:1;fill-rule:nonzero;stroke:none" transform="matrix(1.3105 0 0 -1.3105 29.87 174.253)"/><path d="m0 0-.502.918c-.496.906-1.15 1.195-1.904.781-.764-.418-.75-1.056-.254-1.965l.504-.914Zm2.457 4.512L.578 1.594l.539-.983 2.672 1.465.773-1.414-7.064-3.867L-3.85-.744c-.81 1.482-.937 2.937.686 3.828 1.059.578 2.01.404 2.768-.234l1.992 3.234z" style="fill:#1f4899;fill-opacity:1;fill-rule:nonzero;stroke:none" transform="matrix(1.3105 0 0 -1.3105 25.576 167.887)"/><path d="m0 0-1.92 4.553 1.234.519L.607 2.006l1.715.721-1.099 2.609 1.242.523 1.101-2.607 1.985.836-1.34 3.182 1.242.523L7.42 3.131Z" style="fill:#1f4899;fill-opacity:1;fill-rule:nonzero;stroke:none" transform="matrix(1.3105 0 0 -1.3105 16.963 161.819)"/><path d="m0 0-.775-.486c-.731-.485-1.549-.963-2.313-1.446l.014-.041c.904.061 1.847.096 2.72.114l.913.027zm1.094.699.761-2.5 2.143.063.477-1.559-8.454.115-.552 1.809 6.943 4.83.494-1.613z" style="fill:#1f4899;fill-opacity:1;fill-rule:nonzero;stroke:none" transform="matrix(1.3105 0 0 -1.3105 17.523 145.458)"/><path d="m0 0-.834-.369c-.793-.373-1.674-.727-2.498-1.094l.006-.045a58 58 0 0 0 2.709-.279l.906-.106zm1.187.533.391-2.582 2.129-.252.242-1.611-8.345 1.34-.284 1.873 7.571 3.767.254-1.666z" style="fill:#1f4899;fill-opacity:1;fill-rule:nonzero;stroke:none" transform="matrix(1.3105 0 0 -1.3105 14.388 130.863)"/><path d="M0 0c-.064 1.5-.91 2.402-2.869 2.313-1.967-.086-2.666-1.053-2.598-2.555l.022-.498L.023-.5zm-6.658-2.406-.098 2.207c-.109 2.457 1.098 4.035 3.815 4.156 2.707.117 4.123-1.344 4.226-3.715l.102-2.293z" style="fill:#1f4899;fill-opacity:1;fill-rule:nonzero;stroke:none" transform="matrix(1.3105 0 0 -1.3105 16.19 121.971)"/><path d="m0 0 .094 1.686 3.972.841c.907.202 1.719.319 2.635.528l.004.054c-.889.301-1.682.532-2.559.83L.295 5.207l.09 1.629 7.902-2.924-.109-1.91Z" style="fill:#1f4899;fill-opacity:1;fill-rule:nonzero;stroke:none" transform="matrix(1.3105 0 0 -1.3105 7.114 114.625)"/><path d="m0 0-.91-.104c-.861-.123-1.813-.199-2.707-.304l-.006-.043c.84-.336 1.705-.711 2.5-1.074l.834-.368zm1.289.156L.895-2.426l1.96-.871-.248-1.613-7.57 3.764.287 1.869L3.672 2.07 3.418.402Z" style="fill:#1f4899;fill-opacity:1;fill-rule:nonzero;stroke:none" transform="matrix(1.3105 0 0 -1.3105 14.762 99.52)"/><path d="m0 0 .424 1.584 4.748 1.151 1.889.328.011.055c-.83.132-1.888.29-2.771.525l-3.102.83.393 1.472 7.777-2.08-.42-1.576-4.765-1.137L2.301.814 2.287.76C3.148.607 4.158.463 5.051.223l3.123-.838-.395-1.469Z" style="fill:#1f4899;fill-opacity:1;fill-rule:nonzero;stroke:none" transform="matrix(1.3105 0 0 -1.3105 9.855 91.96)"/><path d="M0 0c-2.475.964-3.307 3.119-2.568 5.015.369.952 1.121 1.536 1.816 1.826l.647-1.16c-.51-.237-.942-.568-1.163-1.138-.443-1.134.2-2.364 1.813-2.994 1.633-.633 2.914-.243 3.377.945.248.638.14 1.262-.137 1.838l1.24.429c.479-.898.553-1.849.174-2.823C4.465.042 2.504-.973 0 0" style="fill:#1f4899;fill-opacity:1;fill-rule:nonzero;stroke:none" transform="matrix(1.3105 0 0 -1.3105 18.133 82.33)"/><path d="m0 0 2.238 4.407 1.192-.606L1.924.829l1.658-.843 1.281 2.525L6.064 1.9 4.785-.625l1.92-.974L8.27 1.477 9.473.866 7.18-3.646Z" style="fill:#1f4899;fill-opacity:1;fill-rule:nonzero;stroke:none" transform="matrix(1.3105 0 0 -1.3105 17.616 69.61)"/><path d="M0 0c.814 1.264.643 2.485-1.004 3.547-1.656 1.064-2.783.679-3.596-.582l-.271-.422L-.27-.418Zm-6.822 1.885 1.195 1.857C-4.297 5.811-2.4 6.399-.113 4.928c2.275-1.469 2.588-3.48 1.302-5.471L-.055-2.475z" style="fill:#1f4899;fill-opacity:1;fill-rule:nonzero;stroke:none" transform="matrix(1.3105 0 0 -1.3105 31.47 62.817)"/><path d="m0 0 1.037 1.23 6.162-5.187-1.041-1.231Z" style="fill:#1f4899;fill-opacity:1;fill-rule:nonzero;stroke:none" transform="matrix(1.3105 0 0 -1.3105 32.21 46.709)"/><path d="m0 0 1.16 1.164L5.848-.205l1.802-.66.036.035C7.031-.297 6.191.371 5.545 1.015L3.273 3.282l1.075 1.077 5.703-5.68L8.898-2.48 4.201-1.086 2.4-.443 2.361-.48c.672-.561 1.473-1.192 2.127-1.844l2.289-2.283-1.076-1.078Z" style="fill:#1f4899;fill-opacity:1;fill-rule:nonzero;stroke:none" transform="matrix(1.3105 0 0 -1.3105 36.316 41.915)"/><path d="m0 0 .016 1.442c.783-.048 1.601.154 2.15.598.65.529.772 1.089.414 1.529-.379.463-.875.297-1.623.082L-.17 3.328c-.844-.255-1.889-.263-2.631.65-.832 1.022-.574 2.532.696 3.563.724.591 1.683.894 2.609.788l.004-1.301c-.664.009-1.229-.14-1.744-.558-.551-.446-.701-.979-.366-1.393.362-.447.94-.244 1.643-.023l1.102.317c1.013.308 1.902.23 2.634-.675.834-1.022.686-2.584-.759-3.756A4.27 4.27 0 0 0 0 0" style="fill:#1f4899;fill-opacity:1;fill-rule:nonzero;stroke:none" transform="matrix(1.3105 0 0 -1.3105 50.516 40.928)"/><path d="m0 0-1.891-1.25-.736 1.119 5.139 3.396.736-1.118L1.342.89l3.701-5.601-1.342-.89Z" style="fill:#1f4899;fill-opacity:1;fill-rule:nonzero;stroke:none" transform="matrix(1.3105 0 0 -1.3105 56.519 26.982)"/><path d="m0 0 1.404.783L5.32-6.254l-1.408-.781Z" style="fill:#1f4899;fill-opacity:1;fill-rule:nonzero;stroke:none" transform="matrix(1.3105 0 0 -1.3105 62.672 21.102)"/><path d="m0 0-2.057-.946-.558 1.217 5.594 2.572.56-1.216L1.463.671 4.27-5.431l-1.465-.672Z" style="fill:#1f4899;fill-opacity:1;fill-rule:nonzero;stroke:none" transform="matrix(1.3105 0 0 -1.3105 70.809 18.847)"/><path d="m0 0-1.41 4.196 1.525.515L1.572.379c.533-1.588 1.262-1.942 2.157-1.639.906.305 1.306 1.034.773 2.622L3.045 5.695l1.465.492 1.41-4.2c.853-2.536.119-3.94-1.748-4.569C2.316-3.205.854-2.537 0 0" style="fill:#1f4899;fill-opacity:1;fill-rule:nonzero;stroke:none" transform="matrix(1.3105 0 0 -1.3105 79.826 19.33)"/><path d="m0 0-2.209-.486-.289 1.305 6.016 1.33.287-1.306L1.572.349l1.449-6.556-1.572-.349Z" style="fill:#1f4899;fill-opacity:1;fill-rule:nonzero;stroke:none" transform="matrix(1.3105 0 0 -1.3105 92.399 11.36)"/><path d="m0 0 4.904.594.158-1.326-3.304-.399.224-1.848 2.807.339.164-1.339-2.808-.339.257-2.141 3.422.416.164-1.343L.965-7.99Z" style="fill:#1f4899;fill-opacity:1;fill-rule:nonzero;stroke:none" transform="matrix(1.3105 0 0 -1.3105 100.416 8.018)"/><path d="M0 0c.053 1.729-.678 2.783-1.875 2.819-1.197.035-1.99-.976-2.041-2.705-.049-1.718.68-2.838 1.875-2.877C-.846-2.797-.047-1.718 0 0m-5.557.164c.077 2.619 1.592 4.101 3.723 4.034C.297 4.138 1.719 2.56 1.643-.05 1.564-2.659.051-4.214-2.082-4.151c-2.129.063-3.553 1.707-3.475 4.315" style="fill:#1f4899;fill-opacity:1;fill-rule:nonzero;stroke:none" transform="matrix(1.3105 0 0 -1.3105 122.466 12.2)"/><path d="m0 0 4.918-.66-.178-1.326-3.322.447-.279-2.082 2.836-.381-.18-1.336-2.836.379-.436-3.235-1.595.215Z" style="fill:#1f4899;fill-opacity:1;fill-rule:nonzero;stroke:none" transform="matrix(1.3105 0 0 -1.3105 128.66 7.448)"/><path d="m0 0 1.189.819C1.604.148 2.238-.402 2.918-.596c.809-.224 1.334-.002 1.486.544.162.576-.259.888-.867 1.375l-.912.733c-.693.546-1.305 1.392-.986 2.526.357 1.267 1.738 1.93 3.312 1.487.901-.254 1.699-.862 2.149-1.677l-1.057-.755c-.377.547-.828.921-1.469 1.101-.678.194-1.205.012-1.349-.503-.155-.552.343-.909.931-1.356l.895-.713C5.885 1.512 6.334.74 6.02-.379 5.666-1.646 4.303-2.43 2.51-1.926A4.3 4.3 0 0 0 0 0" style="fill:#1f4899;fill-opacity:1;fill-rule:nonzero;stroke:none" transform="matrix(1.3105 0 0 -1.3105 140.258 18.746)"/><path d="M0 0c.977 2.471 3.131 3.293 5.027 2.547.95-.373 1.532-1.129 1.819-1.825L5.682.082c-.231.51-.563.945-1.129 1.168-1.135.447-2.369-.189-3.002-1.801-.643-1.63-.258-2.916.926-3.381.638-.252 1.265-.146 1.839.129l.424-1.242c-.9-.475-1.851-.545-2.824-.162C.021-4.463-.982-2.5 0 0" style="fill:#1f4899;fill-opacity:1;fill-rule:nonzero;stroke:none" transform="matrix(1.3105 0 0 -1.3105 151.29 17.942)"/><path d="m0 0 1.447-.707-3.535-7.232-1.447.706z" style="fill:#1f4899;fill-opacity:1;fill-rule:nonzero;stroke:none" transform="matrix(1.3105 0 0 -1.3105 163.85 17.448)"/><path d="m0 0 4.262-2.498-.68-1.155L.713-1.969-.23-3.576l2.441-1.432-.682-1.162-2.441 1.432-1.09-1.86L.975-8.342.293-9.506l-4.365 2.56z" style="fill:#1f4899;fill-opacity:1;fill-rule:nonzero;stroke:none" transform="matrix(1.3105 0 0 -1.3105 169.43 20.26)"/><path d="m0 0 1.322-.973-.656-4.839-.385-1.881.045-.031c.426.726.965 1.657 1.504 2.39l1.902 2.586 1.227-.901-4.772-6.486-1.314.967.68 4.85.367 1.88-.047.028c-.453-.744-.957-1.631-1.504-2.375l-1.916-2.604-1.226.905z" style="fill:#1f4899;fill-opacity:1;fill-rule:nonzero;stroke:none" transform="matrix(1.3105 0 0 -1.3105 178.398 25.72)"/><path d="M0 0c1.791 1.956 4.104 1.948 5.602.572.753-.692 1.023-1.605 1.041-2.357l-1.319-.184c-.029.562-.183 1.087-.633 1.5-.898.824-2.275.672-3.447-.601C.062-2.361-.045-3.698.895-4.559c.503-.462 1.126-.589 1.763-.543l-.051-1.31c-1.013-.119-1.925.158-2.693.863C-1.586-4.174-1.82-1.98 0 0" style="fill:#1f4899;fill-opacity:1;fill-rule:nonzero;stroke:none" transform="matrix(1.3105 0 0 -1.3105 184.35 36.94)"/><path d="m0 0 3.293-3.678-.996-.895L.076-2.09l-1.385-1.242L.576-5.44-.43-6.338-2.314-4.23l-1.604-1.438 2.297-2.57-1.004-.899L-6-5.369Z" style="fill:#1f4899;fill-opacity:1;fill-rule:nonzero;stroke:none" transform="matrix(1.3105 0 0 -1.3105 196.374 41.07)"/><path d="m0 0 .602.688c.558.673 1.207 1.369 1.798 2.049l-.023.037a59 59 0 0 0-2.57-.891l-.868-.289Zm-.848-.983L-2.297 1.19-4.33.516l-.906 1.357 8.132 2.32 1.049-1.577-5.265-6.622-.934 1.404Z" style="fill:#1f4899;fill-opacity:1;fill-rule:nonzero;stroke:none" transform="matrix(1.3105 0 0 -1.3105 203.51 60.17)"/><path d="m0 0 .754-1.461-2.729-4.052-1.171-1.514.023-.05c.703.462 1.596 1.061 2.406 1.482l2.85 1.478.703-1.354-7.149-3.705-.751 1.447 2.751 4.051 1.161 1.522-.028.049c-.736-.471-1.578-1.04-2.4-1.465l-2.867-1.491-.701 1.352z" style="fill:#1f4899;fill-opacity:1;fill-rule:nonzero;stroke:none" transform="matrix(1.3105 0 0 -1.3105 212.226 62.438)"/><path d="M0 0c.537-1.402 1.625-1.986 3.455-1.287 1.84.703 2.191 1.842 1.658 3.246l-.179.467L-.18.469Zm5.557 4.389.789-2.061c.881-2.299.238-4.18-2.303-5.15C1.51-3.793-.295-2.85-1.143-.635l-.822 2.145Z" style="fill:#1f4899;fill-opacity:1;fill-rule:nonzero;stroke:none" transform="matrix(1.3105 0 0 -1.3105 210.48 79.444)"/><path d="m0 0-.488 2.211 1.31.285 1.321-6.014-1.309-.287-.49 2.233-6.557-1.444-.346 1.573z" style="fill:#1f4899;fill-opacity:1;fill-rule:nonzero;stroke:none" transform="matrix(1.3105 0 0 -1.3105 221.845 92.154)"/><path d="m0 0 .59-4.908-1.33-.158-.395 3.306-1.847-.222.336-2.809-1.342-.16-.336 2.81-2.141-.257.412-3.426-1.34-.16-.601 5.025z" style="fill:#1f4899;fill-opacity:1;fill-rule:nonzero;stroke:none" transform="matrix(1.3105 0 0 -1.3105 225.182 100.174)"/><path d="M0 0c2.652.062 4.246-1.611 4.299-3.641.023-1.023-.447-1.853-.979-2.386l-1.043.826c.383.41.655.883.639 1.494C2.889-2.49 1.822-1.602.094-1.643c-1.752-.039-2.787-.892-2.756-2.166.014-.685.353-1.218.832-1.646l-.981-.871c-.787.644-1.222 1.494-1.246 2.539C-4.105-1.754-2.686-.066 0 0" style="fill:#1f4899;fill-opacity:1;fill-rule:nonzero;stroke:none" transform="matrix(1.3105 0 0 -1.3105 220.893 109.97)"/><path d="m0 0-.133-1.605-3.158.263-.254-3.035 3.156-.266-.132-1.595-8.026.672.131 1.595 3.471-.291.256 3.039-3.471.287.137 1.608z" style="fill:#1f4899;fill-opacity:1;fill-rule:nonzero;stroke:none" transform="matrix(1.3105 0 0 -1.3105 226.293 121.567)"/><path d="m0 0-.326-1.609-4.662-1.45-1.867-.445-.01-.053c.838-.08 1.908-.173 2.804-.355l3.145-.631-.301-1.496-7.892 1.59.322 1.601 4.683 1.43 1.858.461.012.053c-.87.095-1.887.179-2.793.363l-3.166.637.298 1.492z" style="fill:#1f4899;fill-opacity:1;fill-rule:nonzero;stroke:none" transform="matrix(1.3105 0 0 -1.3105 224.975 134.185)"/><path d="M0 0c1.646-.539 2.865-.137 3.238.998.371 1.141-.373 2.186-2.019 2.725-1.633.535-2.914.154-3.287-.985C-2.441 1.6-1.633.533 0 0m1.732 5.285C4.225 4.469 5.213 2.6 4.551.572 3.887-1.457 1.973-2.375-.51-1.563s-3.547 2.709-2.883 4.737c.666 2.025 2.643 2.924 5.125 2.111" style="fill:#1f4899;fill-opacity:1;fill-rule:nonzero;stroke:none" transform="matrix(1.3105 0 0 -1.3105 215.146 151.332)"/><path d="m0 0-.658-1.473-6.119 2.741-1.332-2.979-1.233.551 1.992 4.449Z" style="fill:#1f4899;fill-opacity:1;fill-rule:nonzero;stroke:none" transform="matrix(1.3105 0 0 -1.3105 217.949 158.617)"/><path d="M0 0c1.498-.863 2.775-.719 3.373.316.598 1.039.084 2.211-1.416 3.077-1.488.861-2.822.752-3.418-.289C-2.061 2.072-1.488.861 0 0m2.779 4.816C5.049 3.508 5.637 1.473 4.57-.373 3.504-2.221 1.441-2.729-.82-1.424-3.082-.119-3.734 1.955-2.668 3.803-1.604 5.648.516 6.125 2.779 4.816" style="fill:#1f4899;fill-opacity:1;fill-rule:nonzero;stroke:none" transform="matrix(1.3105 0 0 -1.3105 205.904 170.736)"/><path d="M0 0c2.131-1.584 2.357-3.891 1.08-5.611a3.4 3.4 0 0 0-2.316-1.385l-.309 1.301c.539.086 1.047.277 1.481.865.798 1.072.515 2.445-.87 3.476-1.408 1.045-2.736 1.028-3.675-.24-.235-.312-.379-.691-.36-.994l1.276-.945.849 1.142 1.057-.783-1.703-2.297-2.92 2.164c-.104.756.111 1.774.779 2.672C-4.32 1.131-2.158 1.6 0 0" style="fill:#1f4899;fill-opacity:1;fill-rule:nonzero;stroke:none" transform="matrix(1.3105 0 0 -1.3105 203.132 174.98)"/><path d="m0 0 5.397-1.654-1.149-1.264-1.988.727c-.598.234-1.162.455-1.789.687l-.03-.029c.288-.606.545-1.16.834-1.737l.905-1.914L1.051-6.42l-2.135 5.231-2.18 1.988 1.086 1.187z" style="fill:#1f4899;fill-opacity:1;fill-rule:nonzero;stroke:none" transform="matrix(1.3105 0 0 -1.3105 193.5 184.955)"/><path d="m0 0-.576-1.043-1.168.645-1.582-2.864-1.264.698 3.645 6.597 1.263-.699L-1.168.645Zm-6.609 1.062c.554-.306 1.099-.269 1.371.219.261.477.004.959-.551 1.266-.565.312-1.1.269-1.365-.207-.272-.49-.02-.965.545-1.278m4.117 1.325L-7.68 5.254l.543.986 1.951-1.08.522.938 1.271-.702-.517-.939 1.974-1.086ZM-7.137.104C-8.4.805-8.922 1.99-8.359 3.006c.548.996 1.836 1.195 3.097.498 1.266-.697 1.78-1.895 1.229-2.891-.559-1.011-1.84-1.205-3.104-.509m-1.199-1.985 4.74-2.619-.554-1.004-6.004 3.315L-8.742.367-7.48-.33z" style="fill:#1f4899;fill-opacity:1;fill-rule:nonzero;stroke:none" transform="matrix(1.3105 0 0 -1.3105 72.808 208.743)"/><path d="m0 0-.473-1.342 2.643-.926L.982-5.662l-1.371.482.813 2.323-5.377 1.886.375 1.067 2.744-.959.471 1.343-3.612 1.264.379 1.082L1.453.709c.477.807.75 1.486.975 2.115l-5.194 1.819.381 1.095 6.533-2.291-.265-.763C3.635 1.973 3.354 1.18 2.814.232l1.2-.419-.379-1.083z" style="fill:#1f4899;fill-opacity:1;fill-rule:nonzero;stroke:none" transform="matrix(1.3105 0 0 -1.3105 83.02 215.5)"/><path d="m0 0-1.334.23-.818-4.744-1.424.246 1.713 9.928 1.424-.248-.692-3.998 1.336-.23zm-5.32.607c.468 1.373.685 2.432.838 3.317l-3.707.638.195 1.133 5.107-.881-.138-.808c-.166-.959-.373-2.168-.924-3.756ZM-6.309-.5a35 35 0 0 1 2.87-.283l-.102-1.039c-2.074.002-4.303.343-6.027.631l.07 1.185c.549-.094 1.152-.199 1.779-.295l.506 2.93 1.4-.24z" style="fill:#1f4899;fill-opacity:1;fill-rule:nonzero;stroke:none" transform="matrix(1.3105 0 0 -1.3105 104.949 220.848)"/><path d="m0 0-1.33.002-.006-2.525-1.443.002.009 6.312 1.446-.004-.006-2.592 1.334-.002Zm-6.299-1.16c.647 0 1.094.252 1.094.767.002.502-.445.754-1.092.756-.654 0-1.092-.25-1.094-.754 0-.513.438-.765 1.092-.769m-1.754-1.766 6.717-.013-.006-3.356-1.443.004.002 2.197-5.27.008zm1.754.674c-1.445.004-2.471.762-2.471 1.865.004 1.092 1.034 1.844 2.477 1.842 1.455-.002 2.471-.76 2.467-1.851 0-1.104-1.02-1.858-2.473-1.856m2.971 4.02-5.928.009v1.139l2.233-.004v.94l1.455-.004-.002-.938 2.242-.006Z" style="fill:#1f4899;fill-opacity:1;fill-rule:nonzero;stroke:none" transform="matrix(1.3105 0 0 -1.3105 122.466 219.404)"/><path d="m0 0 1.691-9.936-1.433-.24-1.692 9.93zm-2.775-1.539c.515-3.039-.088-5.695-3.325-8.002l-.937.998c2.33 1.65 3.166 3.387 2.996 5.627l-3.311-.566-.195 1.13z" style="fill:#1f4899;fill-opacity:1;fill-rule:nonzero;stroke:none" transform="matrix(1.3105 0 0 -1.3105 137.663 212.201)"/><path d="m0 0 .215-.607 2.576.906.865-2.471-5.201-1.822.19-.537 5.449 1.912.359-1.024-6.803-2.384-.877 2.498 5.213 1.828-.179.515-5.225-1.832-.353 1.014 2.621.918-.211.609-3.606-1.263-.375 1.072 8.588 3.012.375-1.074Zm2.23 2.43c-1.701-.403-3.093-.196-3.998.466C-2.061 1.816-3.033.781-4.611.027l-.803.869c2.062.958 2.762 2.278 2.437 3.198l-.06.174 1.402.492.065-.178c.318-.916 1.687-1.516 3.896-.971Z" style="fill:#1f4899;fill-opacity:1;fill-rule:nonzero;stroke:none" transform="matrix(1.3105 0 0 -1.3105 151.71 214.93)"/><path d="m0 0-2.807 5.137 1.268.691 3.66-6.697-1.266-.695-.382.701-1.662-.908-.471.867zm-6.145.871c.235-.434.768-.43 1.364-.105.584.32.877.769.64 1.199-.234.431-.775.435-1.359.117-.594-.324-.883-.779-.645-1.211m8.993-2.617.55-1.006-6.556-3.584-1.436 2.629 1.229.674-.645 1.181a59 59 0 0 0-2.152-1.24l-.715.92c1.607.891 3.748 2.082 5.481 3.34L-.82.314c-.621-.5-1.291-.964-1.975-1.402l.912-1.674-1.219-.664.661-1.209zM-7.346.215c-.513.939.047 2.082 1.342 2.789 1.285.701 2.551.557 3.065-.381.513-.941-.053-2.072-1.338-2.777-1.297-.709-2.555-.573-3.069.369" style="fill:#1f4899;fill-opacity:1;fill-rule:nonzero;stroke:none" transform="matrix(1.3105 0 0 -1.3105 169.826 207.602)"/><path d="M0 0a1.476 1.476 0 1 0-2.952.002A1.476 1.476 0 0 0 0 0" style="fill:#1f4899;fill-opacity:1;fill-rule:nonzero;stroke:none" transform="matrix(1.3105 0 0 -1.3105 183.989 196.916)"/><path d="M0 0a1.477 1.477 0 1 0-2.956.004A1.477 1.477 0 0 0 0 0" style="fill:#1f4899;fill-opacity:1;fill-rule:nonzero;stroke:none" transform="matrix(1.3105 0 0 -1.3105 51.86 196.916)"/><path d="M0 0h2.26v6.047H.301v1.574c1.144.215 1.887.5 2.631.955h1.871V0h1.918v-2.059H0z" style="fill:#234f99;fill-opacity:1;fill-rule:nonzero;stroke:none" transform="matrix(1.3105 0 0 -1.3105 95.335 171.333)"/><path d="M0 0c-.213 1.756-.887 2.258-1.541 2.258-.674 0-1.246-.473-1.246-1.699C-2.787-.586-2.215-1-1.5-1-.986-1-.412-.729 0 0m-3.629-4.088c.356-.387 1.014-.728 1.627-.728 1.088 0 1.945.769 2.045 3.099-.512-.683-1.414-1.07-2.031-1.07-1.785 0-3.116 1.058-3.116 3.346 0 2.257 1.602 3.603 3.502 3.603 2.016 0 3.975-1.531 3.975-5.391S.346-6.875-1.828-6.875c-1.43 0-2.461.6-3.131 1.271z" style="fill:#234f99;fill-opacity:1;fill-rule:nonzero;stroke:none" transform="matrix(1.3105 0 0 -1.3105 113.2 165.28)"/><path d="M0 0h-4.578v2.115h7.293V.574C.254-2.357 0-4.359-.189-8.521h-2.559C-2.545-5.018-2.004-2.771 0 0" style="fill:#234f99;fill-opacity:1;fill-rule:nonzero;stroke:none" transform="matrix(1.3105 0 0 -1.3105 123.864 162.865)"/><path d="M0 0h2.26v6.047H.299v1.574c1.144.215 1.887.5 2.633.955h1.871V0h1.916v-2.059H0z" style="fill:#234f99;fill-opacity:1;fill-rule:nonzero;stroke:none" transform="matrix(1.3105 0 0 -1.3105 129.5 171.333)"/><path d="M0 0c-47.859 0-86.795-38.938-86.795-86.797S-47.859-173.594 0-173.594s86.795 38.938 86.795 86.797S47.859 0 0 0m0-174.414c-48.313 0-87.615 39.305-87.615 87.617S-48.313.819 0 .819c48.311 0 87.615-39.303 87.615-87.616 0-48.312-39.304-87.617-87.615-87.617" style="fill:#1f4899;fill-opacity:1;fill-rule:nonzero;stroke:none" transform="matrix(1.3105 0 0 -1.3105 116.82 3.073)"/></svg>